<?xml version="1.0" encoding="UTF-8"?><svg xmlns:xlink="http://www.w3.org/1999/xlink" xmlns="http://www.w3.org/2000/svg" contentScriptType="text/ecmascript" zoomAndPan="magnify" contentStyleType="text/css" viewBox="0 0 1400 1340" preserveAspectRatio="xMidYMid meet" version="1.0"><rect x="0" y="0" alignment-baseline="middle" fill="#E5E5D0" width="1400" rx="20" ry="20" height="1340" stroke="#919191"/><rect x="200" y="100" alignment-baseline="middle" fill="#E5E5E5" width="1000" rx="20" ry="20" height="1140" stroke="#919191"/><text x="220" font-size="15" y="120" dominant-baseline="mathematical">Calculator</text><rect x="400" y="200" fill-opacity="0.75" fill="#3D59AB" width="200" rx="20" ry="20" height="130" stroke="#104E8B"/><text x="400" font-size="15" y="350" dominant-baseline="mathematical">CalculatorServiceComponent</text><polygon fill="#00CD66" points="380,210 410,210 425,225 410,240 380,240 395,225 " stroke="#008B45"/><text x="380" font-size="15" y="209" dominant-baseline="mathematical">CalculatorService</text><polygon fill="#BF3EFF" points="586,210 608,210 619,221 608,232 586,232 597,221 " stroke="#68228B"/><text x="586" font-size="15" y="209" dominant-baseline="mathematical">addService</text><polygon fill="#BF3EFF" points="586,242 608,242 619,253 608,264 586,264 597,253 " stroke="#68228B"/><text x="586" font-size="15" y="241" dominant-baseline="mathematical">subtractService</text><polygon fill="#BF3EFF" points="586,274 608,274 619,285 608,296 586,296 597,285 " stroke="#68228B"/><text x="586" font-size="15" y="273" dominant-baseline="mathematical">multiplyService</text><polygon fill="#BF3EFF" points="586,306 608,306 619,317 608,328 586,328 597,317 " stroke="#68228B"/><text x="586" font-size="15" y="305" dominant-baseline="mathematical">divideService</text><rect x="800" y="200" fill-opacity="0.75" fill="#3D59AB" width="200" rx="20" ry="20" height="130" stroke="#104E8B"/><text x="800" font-size="15" y="350" dominant-baseline="mathematical">AddServiceComponent</text><polygon fill="#00CD66" points="780,210 810,210 825,225 810,240 780,240 795,225 " stroke="#008B45"/><text x="780" font-size="15" y="209" dominant-baseline="mathematical">AddService</text><rect x="800" y="460" fill-opacity="0.75" fill="#3D59AB" width="200" rx="20" ry="20" height="130" stroke="#104E8B"/><text x="800" font-size="15" y="610" dominant-baseline="mathematical">SubtractServiceComponent</text><polygon fill="#00CD66" points="780,470 810,470 825,485 810,500 780,500 795,485 " stroke="#008B45"/><text x="780" font-size="15" y="469" dominant-baseline="mathematical">SubtractService</text><rect x="800" y="720" fill-opacity="0.75" fill="#3D59AB" width="200" rx="20" ry="20" height="130" stroke="#104E8B"/><text x="800" font-size="15" y="870" dominant-baseline="mathematical">MultiplyServiceComponent</text><polygon fill="#00CD66" points="780,730 810,730 825,745 810,760 780,760 795,745 " stroke="#008B45"/><text x="780" font-size="15" y="729" dominant-baseline="mathematical">MultiplyService</text><rect x="800" y="980" fill-opacity="0.75" fill="#3D59AB" width="200" rx="20" ry="20" height="130" stroke="#104E8B"/><text x="800" font-size="15" y="1130" dominant-baseline="mathematical">DivideServiceComponent</text><polygon fill="#00CD66" points="780,990 810,990 825,1005 810,1020 780,1020 795,1005 " stroke="#008B45"/><text x="780" font-size="15" y="989" dominant-baseline="mathematical">DivideService</text><rect x="400" y="460" fill-opacity="0.75" fill="#3D59AB" width="200" rx="20" ry="20" height="130" stroke="#104E8B"/><text x="400" font-size="15" y="610" dominant-baseline="mathematical">StockQuoteMediatorComponent</text><rect fill="#EEEE00" x="420" width="20" height="20" y="450" stroke="#EEC900"/><text x="420" font-size="15" y="449" dominant-baseline="mathematical">currency</text><polygon fill="#00CD66" points="380,470 410,470 425,485 410,500 380,500 395,485 " stroke="#008B45"/><text x="380" font-size="15" y="469" dominant-baseline="mathematical">SQMediator</text><polygon fill="#BF3EFF" points="580,470 610,470 625,485 610,500 580,500 595,485 " stroke="#68228B"/><text x="580" font-size="15" y="469" dominant-baseline="mathematical">stockQuoteService</text><polyline fill="none" stroke-width="2" points="619,221 639,221 639,225 795,225" stroke="black"/><polyline fill="none" stroke-width="2" points="619,317 644,317 644,1005 795,1005" stroke="black"/><polyline fill="none" stroke-width="2" points="619,285 649,285 649,745 795,745" stroke="black"/><polyline fill="none" stroke-width="2" points="619,253 654,253 654,485 795,485" stroke="black"/></svg>