<?xml version="1.0" encoding="UTF-8"?><svg xmlns:xlink="http://www.w3.org/1999/xlink" xmlns="http://www.w3.org/2000/svg" contentScriptType="text/ecmascript" zoomAndPan="magnify" contentStyleType="text/css" viewBox="0 0 1800 820" preserveAspectRatio="xMidYMid meet" version="1.0"><rect x="0" y="0" alignment-baseline="middle" fill="#E5E5D0" width="1800" rx="20" ry="20" height="820" stroke="#919191"/><rect x="200" y="100" alignment-baseline="middle" fill="#E5E5E5" width="1400" rx="20" ry="20" height="620" stroke="#919191"/><text x="220" font-size="15" y="120" dominant-baseline="mathematical">store</text><rect x="400" y="200" fill-opacity="0.75" fill="#3D59AB" width="200" rx="20" ry="20" height="130" stroke="#104E8B"/><text x="400" font-size="15" y="350" dominant-baseline="mathematical">Store</text><polygon fill="#00CD66" points="380,210 410,210 425,225 410,240 380,240 395,225 " stroke="#008B45"/><text x="380" font-size="15" y="209" dominant-baseline="mathematical">Widget</text><polygon fill="#BF3EFF" points="580,210 610,210 625,225 610,240 580,240 595,225 " stroke="#68228B"/><text x="580" font-size="15" y="209" dominant-baseline="mathematical">catalog</text><polygon fill="#BF3EFF" points="580,250 610,250 625,265 610,280 580,280 595,265 " stroke="#68228B"/><text x="580" font-size="15" y="249" dominant-baseline="mathematical">shoppingCart</text><polygon fill="#BF3EFF" points="580,290 610,290 625,305 610,320 580,320 595,305 " stroke="#68228B"/><text x="580" font-size="15" y="289" dominant-baseline="mathematical">shoppingTotal</text><rect x="800" y="200" fill-opacity="0.75" fill="#3D59AB" width="200" rx="20" ry="20" height="130" stroke="#104E8B"/><text x="800" font-size="15" y="350" dominant-baseline="mathematical">Catalog</text><rect fill="#EEEE00" x="820" width="20" height="20" y="190" stroke="#EEC900"/><text x="820" font-size="15" y="189" dominant-baseline="mathematical">currencyCode</text><polygon fill="#00CD66" points="780,210 810,210 825,225 810,240 780,240 795,225 " stroke="#008B45"/><text x="780" font-size="15" y="209" dominant-baseline="mathematical">Catalog</text><polygon fill="#BF3EFF" points="980,210 1010,210 1025,225 1010,240 980,240 995,225 " stroke="#68228B"/><text x="980" font-size="15" y="209" dominant-baseline="mathematical">currencyConverter</text><rect x="800" y="460" fill-opacity="0.75" fill="#3D59AB" width="200" rx="20" ry="20" height="130" stroke="#104E8B"/><text x="800" font-size="15" y="610" dominant-baseline="mathematical">ShoppingCart</text><polygon fill="#00CD66" points="780,470 810,470 825,485 810,500 780,500 795,485 " stroke="#008B45"/><text x="780" font-size="15" y="469" dominant-baseline="mathematical">Cart</text><polygon fill="#00CD66" points="780,510 810,510 825,525 810,540 780,540 795,525 " stroke="#008B45"/><text x="780" font-size="15" y="509" dominant-baseline="mathematical">Total</text><rect x="1200" y="200" fill-opacity="0.75" fill="#3D59AB" width="200" rx="20" ry="20" height="130" stroke="#104E8B"/><text x="1200" font-size="15" y="350" dominant-baseline="mathematical">CurrencyConverter</text><polygon fill="#00CD66" points="1180,210 1210,210 1225,225 1210,240 1180,240 1195,225 " stroke="#008B45"/><text x="1180" font-size="15" y="209" dominant-baseline="mathematical">CurrencyConverter</text><polyline fill="none" stroke-width="2" points="625,305 645,305 645,525 795,525" stroke="black"/><polyline fill="none" stroke-width="2" points="625,265 650,265 650,485 795,485" stroke="black"/><polyline fill="none" stroke-width="2" points="625,225 795,225" stroke="black"/><polyline fill="none" stroke-width="2" points="1025,225 1195,225" stroke="black"/></svg>