<?xml version="1.0" encoding="UTF-8"?><svg xmlns:xlink="http://www.w3.org/1999/xlink" xmlns="http://www.w3.org/2000/svg" contentScriptType="text/ecmascript" zoomAndPan="magnify" contentStyleType="text/css" viewBox="0 0 2200 560" preserveAspectRatio="xMidYMid meet" version="1.0"><rect x="0" y="0" alignment-baseline="middle" fill="#E5E5D0" width="2200" rx="20" ry="20" height="560" stroke="#919191"/><rect x="200" y="100" alignment-baseline="middle" fill="#E5E5E5" width="1800" rx="20" ry="20" height="360" stroke="#919191"/><text x="220" font-size="15" y="120" dominant-baseline="mathematical">supplychain</text><rect x="400" y="200" fill-opacity="0.75" fill="#3D59AB" width="200" rx="20" ry="20" height="130" stroke="#104E8B"/><text x="400" font-size="15" y="350" dominant-baseline="mathematical">CustomerComponent</text><polygon fill="#00CD66" points="380,210 410,210 425,225 410,240 380,240 395,225 " stroke="#008B45"/><text x="380" font-size="15" y="209" dominant-baseline="mathematical">CustomerComponent</text><polygon fill="#BF3EFF" points="580,210 610,210 625,225 610,240 580,240 595,225 " stroke="#68228B"/><text x="580" font-size="15" y="209" dominant-baseline="mathematical">retailer</text><rect x="800" y="200" fill-opacity="0.75" fill="#3D59AB" width="200" rx="20" ry="20" height="130" stroke="#104E8B"/><text x="800" font-size="15" y="350" dominant-baseline="mathematical">RetailerComponent</text><polygon fill="#00CD66" points="780,210 810,210 825,225 810,240 780,240 795,225 " stroke="#008B45"/><text x="780" font-size="15" y="209" dominant-baseline="mathematical">RetailerComponent</text><polygon fill="#BF3EFF" points="980,210 1010,210 1025,225 1010,240 980,240 995,225 " stroke="#68228B"/><text x="980" font-size="15" y="209" dominant-baseline="mathematical">warehouse</text><rect x="1200" y="200" fill-opacity="0.75" fill="#3D59AB" width="200" rx="20" ry="20" height="130" stroke="#104E8B"/><text x="1200" font-size="15" y="350" dominant-baseline="mathematical">WarehouseComponent</text><polygon fill="#00CD66" points="1180,210 1210,210 1225,225 1210,240 1180,240 1195,225 " stroke="#008B45"/><text x="1180" font-size="15" y="209" dominant-baseline="mathematical">WarehouseComponent</text><polygon fill="#BF3EFF" points="1380,210 1410,210 1425,225 1410,240 1380,240 1395,225 " stroke="#68228B"/><text x="1380" font-size="15" y="209" dominant-baseline="mathematical">shipper</text><rect x="1600" y="200" fill-opacity="0.75" fill="#3D59AB" width="200" rx="20" ry="20" height="130" stroke="#104E8B"/><text x="1600" font-size="15" y="350" dominant-baseline="mathematical">ShipperComponent</text><polygon fill="#00CD66" points="1580,210 1610,210 1625,225 1610,240 1580,240 1595,225 " stroke="#008B45"/><text x="1580" font-size="15" y="209" dominant-baseline="mathematical">ShipperComponent</text><polygon fill="#BF3EFF" points="1780,210 1810,210 1825,225 1810,240 1780,240 1795,225 " stroke="#68228B"/><text x="1780" font-size="15" y="209" dominant-baseline="mathematical">customer</text><polyline fill="none" stroke-width="2" points="625,225 795,225" stroke="black"/><polyline fill="none" stroke-width="2" points="1025,225 1195,225" stroke="black"/><polyline fill="none" stroke-width="2" points="1425,225 1595,225" stroke="black"/><polyline fill="none" stroke-width="2" points="1825,225 1860,225 1860,155 360,155 360,225 395,225" stroke="black"/></svg>